<?xml version="1.0" encoding="utf-8"?>
<!-- Generator: Adobe Illustrator 19.2.0, SVG Export Plug-In . SVG Version: 6.00 Build 0)  -->
<svg version="1.1" id="Layer_1" xmlns="http://www.w3.org/2000/svg" xmlns:xlink="http://www.w3.org/1999/xlink" x="0px" y="0px"
	 viewBox="0 0 861.8 48.6" style="enable-background:new 0 0 861.8 48.6;" xml:space="preserve">
<style type="text/css">
	.st0{fill:#FFFFFF;}
</style>
<g>
	<g>
		<path class="st0" d="M761.2,0.5h3l-12.6,23.1h-3L761.2,0.5z"/>
		<path class="st0" d="M858.9,0.5h2.9l-12.4,22.7h-2.9L858.9,0.5z"/>
		<path class="st0" d="M799,7.4c-1-2.7-2.5-3.9-5.2-3.9c-3.6,0-6.1,2.6-6.1,7.3s2.5,7.3,6.1,7.3c2.7,0,4.1-1.2,5.2-3.9l3,0.7
			c-1,3.9-3.9,6.1-8.2,6.1c-2.6,0-4.8-0.9-6.6-2.7c-1.8-1.8-2.7-4.4-2.7-7.6c0-3.3,0.9-5.8,2.7-7.6c1.8-1.8,4-2.7,6.6-2.7
			c4.2,0,7.1,2.2,8.2,6.1L799,7.4z"/>
		<path class="st0" d="M819.5,0.5c2.6,0,4.8,0.9,6.6,2.7c1.8,1.8,2.7,4.3,2.7,7.6s-0.9,5.8-2.7,7.6c-1.8,1.8-3.9,2.7-6.6,2.7
			c-2.6,0-4.8-0.9-6.6-2.7c-1.8-1.8-2.7-4.4-2.7-7.6s0.9-5.8,2.7-7.6C814.7,1.4,816.9,0.5,819.5,0.5z M819.5,3.5
			c-1.7,0-3.2,0.6-4.3,1.9c-1.1,1.2-1.7,3.1-1.7,5.4s0.6,4.2,1.7,5.4c1.2,1.2,2.6,1.9,4.3,1.9c1.7,0,3.2-0.6,4.3-1.9
			c1.2-1.2,1.7-3.1,1.7-5.4s-0.6-4.2-1.7-5.4C822.7,4.1,821.2,3.5,819.5,3.5z"/>
	</g>
	<g>
		<g>
			<path class="st0" d="M0,0.5h28.8v7.1H7.5v12.3h17.2V27H7.5v21.1H0V0.5z"/>
			<path class="st0" d="M54,0.5H61l16.5,47.5h-7.6L66,36.3H49l-3.9,11.8h-7.6L54,0.5z M57.5,10l-6.2,19.2h12.5L57.5,10z"/>
			<path class="st0" d="M121.1,0.5h7.5v47.5h-8L101.1,14v34.1h-7.5V0.5h8l19.5,34.2V0.5z"/>
			<path class="st0" d="M145.9,7.6V0.5H180v7.1h-13.3v40.5h-7.5V7.6H145.9z"/>
			<path class="st0" d="M203.4,0.5h7.1L227,48.1h-7.6l-3.9-11.8h-17l-3.9,11.8h-7.6L203.4,0.5z M207,10l-6.2,19.2h12.5L207,10z"/>
			<path class="st0" d="M263,12c-1.8-3.5-4.2-5.2-7.1-5.2c-3,0-5,2.2-5,5.2c0,3.5,3.2,5.8,7.2,7.7c5.7,2.5,13.2,5.9,13.2,14.5
				c0,4.3-1.4,7.8-4.2,10.5s-6.3,4-10.7,4c-8.1,0-14-5.4-15.7-13.2l6.1-3.9c1.7,6.7,4.9,10,9.6,10c4.3,0,7.3-3,7.3-7.1
				c0-9.3-20.2-7.3-20.2-21.9c0-3.6,1.2-6.5,3.6-8.9c2.4-2.4,5.4-3.6,8.8-3.6c5.8,0,10.1,2.6,13.1,8L263,12z"/>
			<path class="st0" d="M285.1,7.6V0.5h34.1v7.1h-13.3v40.5h-7.5V7.6H285.1z"/>
			<path class="st0" d="M335.8,48.1V0.5h7.5v47.5H335.8z"/>
			<path class="st0" d="M396.5,16.2c-2.4-6.2-5.9-9.1-12.2-9.1c-8.4,0-14.4,6.1-14.4,17.2c0,11.1,6,17.2,14.4,17.2
				c6.2,0,9.7-2.9,12.2-9.1l7.1,1.8c-2.4,9.2-9.2,14.4-19.2,14.4c-6.1,0-11.3-2.1-15.6-6.4c-4.3-4.3-6.4-10.3-6.4-17.9
				c0-7.7,2.1-13.6,6.4-17.9C373,2.2,378.2,0,384.3,0c10,0,16.8,5.2,19.2,14.4L396.5,16.2z"/>
			<path class="st0" d="M444.7,7.6V0.5h34.1v7.1h-13.3v40.5H458V7.6H444.7z"/>
			<path class="st0" d="M502.2,0.5h7.1l16.5,47.5h-7.6l-3.9-11.8h-17l-3.9,11.8h-7.6L502.2,0.5z M505.7,10l-6.2,19.2H512L505.7,10z"
				/>
			<path class="st0" d="M573.3,16.2c-2.4-6.2-5.9-9.1-12.2-9.1c-8.4,0-14.4,6.1-14.4,17.2c0,11.1,6,17.2,14.4,17.2
				c6.2,0,9.7-2.9,12.2-9.1l7.1,1.8c-2.4,9.2-9.2,14.4-19.2,14.4c-6.1,0-11.3-2.1-15.6-6.4c-4.3-4.3-6.4-10.3-6.4-17.9
				c0-7.7,2.1-13.6,6.4-17.9c4.3-4.3,9.5-6.5,15.6-6.5c10,0,16.8,5.2,19.2,14.4L573.3,16.2z"/>
			<path class="st0" d="M598.7,0.5h7.5v18.3l17-18.3h9.1l-19.1,21.3l20.7,26.3h-9.6l-18.1-23.3v23.3h-7.5V0.5z"/>
			<path class="st0" d="M649.9,0.5h7.5V41h20.5v7.1h-28V0.5z"/>
			<path class="st0" d="M695.7,0.5h28.2v7.1h-20.7v11.7h16.7v7.1h-16.7V41h21.4v7.1h-28.9V0.5z"/>
		</g>
	</g>
</g>
</svg>
