<?xml version="1.0" encoding="utf-8"?>
<!-- Generator: Adobe Illustrator 19.2.0, SVG Export Plug-In . SVG Version: 6.00 Build 0)  -->
<svg version="1.1" id="Layer_1" xmlns="http://www.w3.org/2000/svg" xmlns:xlink="http://www.w3.org/1999/xlink" x="0px" y="0px"
	 viewBox="0 0 339.7 14.8" style="enable-background:new 0 0 339.7 14.8;" xml:space="preserve">
<style type="text/css">
	.st0{fill:#FFFFFF;}
</style>
<g>
	<path class="st0" d="M93,3.9h1.6l-2.8,9.2h-1.5l-1.8-7l-1.8,7h-1.5l-2.8-9.2h1.6L86,11l1.8-7.1h1.5l1.8,7.1L93,3.9z"/>
	<path class="st0" d="M97.5,0.2c0.7,0,1.1,0.5,1.1,1.2c0,0.6-0.5,1.1-1.1,1.1c-0.7,0-1.1-0.5-1.1-1.1C96.3,0.7,96.8,0.2,97.5,0.2z
		 M96.7,3.9h1.5v9.2h-1.5V3.9z"/>
	<path class="st0" d="M101.2,0.2h1.5v12.9h-1.5V0.2z"/>
	<path class="st0" d="M107.2,12v1.1h-1.5V0.2h1.5V5c0.2-0.3,0.5-0.6,1.1-0.8c0.5-0.3,1.1-0.4,1.6-0.4c2.6,0,4.1,1.9,4.1,4.7
		s-1.5,4.7-4.1,4.7C108.8,13.2,107.7,12.7,107.2,12z M107.1,8.5c0,2,1,3.4,2.7,3.4c1.6,0,2.7-1.4,2.7-3.4c0-2-1.1-3.4-2.7-3.4
		C108.1,5.1,107.1,6.5,107.1,8.5z"/>
	<path class="st0" d="M124.4,8.8h-6.7c0.1,1.8,1,3,2.6,3c1.3,0,2-0.6,2.6-1.7l1.3,0.6c-0.9,1.8-2,2.6-3.9,2.6
		c-1.3,0-2.4-0.5-3.1-1.4c-0.7-0.9-1.1-2-1.1-3.4c0-1.3,0.4-2.4,1.1-3.4c0.7-0.9,1.7-1.4,3.1-1.4c1.3,0,2.3,0.4,3,1.3
		c0.7,0.8,1.1,1.9,1.1,3.1V8.8z M117.8,7.4h5c-0.3-1.4-1.1-2.3-2.6-2.3C118.9,5.1,118,6,117.8,7.4z"/>
	<path class="st0" d="M131.9,5.4c-0.3-0.2-0.7-0.3-1.1-0.3c-0.7,0-1.3,0.4-1.8,1.2c-0.5,0.8-0.8,1.9-0.8,3.3v3.5h-1.5V3.9h1.5v1.6
		c0.5-1,1.7-1.7,2.7-1.7c0.5,0,0.9,0.1,1.3,0.3L131.9,5.4z"/>
	<path class="st0" d="M133.8,5.3V3.9h1.3V3.3c0-2.1,1.1-3.1,3-3.1c0.5,0,1,0.1,1.3,0.3l-0.3,1.3c-0.3-0.2-0.7-0.3-1-0.3
		c-1,0-1.4,0.5-1.4,1.7v0.6h2.1v1.4h-2.1v7.8h-1.5V5.3H133.8z"/>
	<path class="st0" d="M140.2,8.5c0-1.3,0.4-2.4,1.2-3.3c0.8-0.9,1.9-1.4,3.2-1.4c1.3,0,2.4,0.5,3.2,1.4c0.8,0.9,1.2,2,1.2,3.3
		s-0.4,2.4-1.2,3.4c-0.8,0.9-1.9,1.4-3.2,1.4c-1.3,0-2.4-0.5-3.2-1.4C140.6,10.9,140.2,9.8,140.2,8.5z M141.7,8.5
		c0,0.9,0.3,1.7,0.7,2.4c0.5,0.7,1.2,1,2.1,1s1.6-0.3,2.1-1c0.5-0.7,0.8-1.5,0.8-2.4c0-0.9-0.3-1.7-0.8-2.4c-0.5-0.7-1.2-1-2.1-1
		s-1.6,0.3-2.1,1C142,6.8,141.7,7.6,141.7,8.5z"/>
	<path class="st0" d="M156.5,5.4c-0.3-0.2-0.7-0.3-1.1-0.3c-0.7,0-1.3,0.4-1.8,1.2c-0.5,0.8-0.8,1.9-0.8,3.3v3.5h-1.5V3.9h1.5v1.6
		c0.5-1,1.7-1.7,2.7-1.7c0.5,0,0.9,0.1,1.3,0.3L156.5,5.4z"/>
	<path class="st0" d="M165.8,10.7c-0.7,1.7-2,2.5-3.8,2.5c-1.3,0-2.4-0.5-3.1-1.4c-0.7-0.9-1.1-2-1.1-3.4c0-1.3,0.4-2.4,1.1-3.4
		c0.7-0.9,1.8-1.4,3.1-1.4c1.8,0,3.1,0.8,3.8,2.5l-1.3,0.5c-0.5-1.1-1.3-1.7-2.5-1.7c-1.7,0-2.6,1.4-2.6,3.4c0,2,0.9,3.4,2.6,3.4
		c1.2,0,2-0.6,2.5-1.7L165.8,10.7z"/>
	<path class="st0" d="M175.9,8.8h-6.7c0.1,1.8,1,3,2.6,3c1.3,0,2-0.6,2.6-1.7l1.3,0.6c-0.9,1.8-2,2.6-3.9,2.6
		c-1.3,0-2.4-0.5-3.1-1.4c-0.7-0.9-1.1-2-1.1-3.4c0-1.3,0.4-2.4,1.1-3.4c0.7-0.9,1.7-1.4,3.1-1.4c1.3,0,2.3,0.4,3,1.3
		c0.7,0.8,1.1,1.9,1.1,3.1V8.8z M169.3,7.4h5c-0.3-1.4-1.1-2.3-2.6-2.3C170.4,5.1,169.6,6,169.3,7.4z"/>
	<path class="st0" d="M187.6,3.8h1.2l-0.4,4.6c0,0.2,0,0.4,0,0.4c0,0.6,0.3,0.9,0.9,0.9c1.1,0,1.6-1,1.6-3.1c0-3.6-1.7-5.4-5.2-5.4
		c-2.9,0-5.7,2.1-5.7,6.3c0,1.8,0.6,3.2,1.7,4.3c1.1,1,2.4,1.5,4,1.5c0.8,0,1.5-0.1,2.2-0.2c0.7-0.1,1.4-0.4,2.3-0.9l0.5,1.2
		c-1,0.5-1.8,0.8-2.5,0.9c-0.7,0.2-1.5,0.3-2.5,0.3c-2.1,0-3.8-0.7-5.2-2c-1.3-1.3-2-3.1-2-5.2c0-2.3,0.7-4.2,2.1-5.5
		c1.4-1.4,3.2-2.1,5.2-2.1c2.1,0,3.7,0.6,4.9,1.7c1.2,1.1,1.8,2.8,1.8,4.9c0,2.9-1.3,4.4-3.2,4.4c-0.9,0-1.7-0.5-2-1.3
		c-0.5,0.8-1.3,1.3-2.4,1.3c-2,0-3.1-1.4-3.1-3.4c0-1.1,0.3-2.1,1-2.8c0.7-0.8,1.6-1.2,2.8-1.2c0.9,0,1.6,0.3,2,1L187.6,3.8z
		 M183,7.8c0,1.3,0.6,2,1.8,2c1.4,0,2.2-1.2,2.2-2.7c0-1.3-0.6-2-1.8-2C183.9,5,183,6.1,183,7.8z"/>
	<path class="st0" d="M194.5,5.3V3.9h1.3V3.3c0-2.1,1.1-3.1,3-3.1c0.5,0,1,0.1,1.3,0.3l-0.3,1.3c-0.3-0.2-0.7-0.3-1-0.3
		c-1,0-1.4,0.5-1.4,1.7v0.6h2.1v1.4h-2.1v7.8h-1.5V5.3H194.5z"/>
	<path class="st0" d="M208.3,13.1H207l-0.3-1.3c-0.7,1-1.6,1.4-2.9,1.4c-1.7,0-2.8-0.9-2.8-2.8c0-2,1.6-3,4.2-3h1.5V7
		c0-1.3-0.7-1.9-2-1.9c-1,0-1.7,0.5-1.9,1.4l-1.3-0.3c0.2-1.5,1.5-2.5,3.3-2.5c2.1,0,3.5,1.1,3.5,3.5V13.1z M204.2,11.8
		c0.7,0,1.3-0.2,1.8-0.7c0.5-0.5,0.8-1.2,0.8-2.1V8.8h-1.6c-1.5,0-2.4,0.6-2.4,1.6C202.6,11.3,203.2,11.8,204.2,11.8z"/>
	<path class="st0" d="M218.2,13.1h-1.5V7c0-1.3-0.5-1.9-1.6-1.9c-0.7,0-1.3,0.4-1.9,1.1c-0.5,0.7-0.8,1.7-0.8,3v3.8h-1.5V3.9h1.5
		v1.7c0.7-1.2,1.7-1.8,3-1.8c1.7,0,2.7,1,2.7,2.9V13.1z"/>
	<path class="st0" d="M220.2,5.3V3.9h1.6V1.1l1.5-1v3.7h2.4v1.4h-2.4v5c0,1,0.4,1.5,1.2,1.5c0.4,0,0.7-0.1,1-0.3l0.4,1.3
		c-0.4,0.2-0.9,0.3-1.5,0.3c-1.6,0-2.7-1-2.7-3V5.3H220.2z"/>
	<path class="st0" d="M234.8,13.1h-1.2l-0.3-1.3c-0.7,1-1.6,1.4-2.9,1.4c-1.7,0-2.8-0.9-2.8-2.8c0-2,1.6-3,4.2-3h1.5V7
		c0-1.3-0.7-1.9-2-1.9c-1,0-1.7,0.5-1.9,1.4L228,6.3c0.2-1.5,1.5-2.5,3.3-2.5c2.1,0,3.5,1.1,3.5,3.5V13.1z M230.7,11.8
		c0.7,0,1.3-0.2,1.8-0.7c0.5-0.5,0.8-1.2,0.8-2.1V8.8h-1.6c-1.5,0-2.4,0.6-2.4,1.6C229.2,11.3,229.7,11.8,230.7,11.8z"/>
	<path class="st0" d="M242.8,5.2l-1,0.9c-0.6-0.6-1.1-0.9-1.7-0.9c-0.6,0-1.1,0.4-1.1,1.2c0,1.6,4.3,1.3,4.3,4c0,1.8-1.2,2.9-3,2.9
		c-1.7,0-2.9-1.1-3.4-2.5l1.3-0.7c0.5,1.2,1.2,1.8,2.1,1.8c1,0,1.5-0.5,1.5-1.4c0-0.6-0.7-1-1.5-1.3c-1.2-0.5-2.7-1-2.7-2.8
		c0-1.5,1.1-2.5,2.7-2.5C241.3,3.8,242.2,4.2,242.8,5.2z"/>
	<path class="st0" d="M244.6,5.3V3.9h1.6V1.1l1.5-1v3.7h2.4v1.4h-2.4v5c0,1,0.4,1.5,1.2,1.5c0.4,0,0.7-0.1,1-0.3l0.4,1.3
		c-0.4,0.2-0.9,0.3-1.5,0.3c-1.6,0-2.7-1-2.7-3V5.3H244.6z"/>
	<path class="st0" d="M253.4,0.2c0.7,0,1.1,0.5,1.1,1.2c0,0.6-0.5,1.1-1.1,1.1c-0.7,0-1.1-0.5-1.1-1.1
		C252.3,0.7,252.8,0.2,253.4,0.2z M252.7,3.9h1.5v9.2h-1.5V3.9z"/>
	<path class="st0" d="M264.6,10.7c-0.7,1.7-2,2.5-3.8,2.5c-1.3,0-2.4-0.5-3.1-1.4c-0.7-0.9-1.1-2-1.1-3.4c0-1.3,0.4-2.4,1.1-3.4
		c0.7-0.9,1.8-1.4,3.1-1.4c1.8,0,3.1,0.8,3.8,2.5l-1.3,0.5c-0.5-1.1-1.3-1.7-2.5-1.7c-1.7,0-2.6,1.4-2.6,3.4c0,2,0.9,3.4,2.6,3.4
		c1.2,0,2-0.6,2.5-1.7L264.6,10.7z"/>
	<path class="st0" d="M266.2,5.3V3.9h1.6V1.1l1.5-1v3.7h2.4v1.4h-2.4v5c0,1,0.4,1.5,1.2,1.5c0.4,0,0.7-0.1,1-0.3l0.4,1.3
		c-0.4,0.2-0.9,0.3-1.5,0.3c-1.6,0-2.7-1-2.7-3V5.3H266.2z"/>
	<path class="st0" d="M280.8,13.1h-1.2l-0.3-1.3c-0.7,1-1.6,1.4-2.9,1.4c-1.7,0-2.8-0.9-2.8-2.8c0-2,1.6-3,4.2-3h1.5V7
		c0-1.3-0.7-1.9-2-1.9c-1,0-1.7,0.5-1.9,1.4L274,6.3c0.2-1.5,1.5-2.5,3.3-2.5c2.1,0,3.5,1.1,3.5,3.5V13.1z M276.7,11.8
		c0.7,0,1.3-0.2,1.8-0.7c0.5-0.5,0.8-1.2,0.8-2.1V8.8h-1.6c-1.5,0-2.4,0.6-2.4,1.6C275.1,11.3,275.7,11.8,276.7,11.8z"/>
	<path class="st0" d="M291.1,10.7c-0.7,1.7-2,2.5-3.8,2.5c-1.3,0-2.4-0.5-3.1-1.4c-0.7-0.9-1.1-2-1.1-3.4c0-1.3,0.4-2.4,1.1-3.4
		c0.7-0.9,1.8-1.4,3.1-1.4c1.8,0,3.1,0.8,3.8,2.5l-1.3,0.5c-0.5-1.1-1.3-1.7-2.5-1.7c-1.7,0-2.6,1.4-2.6,3.4c0,2,0.9,3.4,2.6,3.4
		c1.2,0,2-0.6,2.5-1.7L291.1,10.7z"/>
	<path class="st0" d="M293.4,0.2h1.5v7.6l3.6-3.8h2l-3.9,4.2l4.2,5h-1.9l-3.9-4.6v4.6h-1.5V0.2z"/>
	<path class="st0" d="M302.5,0.2h1.5v12.9h-1.5V0.2z"/>
	<path class="st0" d="M314.7,8.8H308c0.1,1.8,1,3,2.6,3c1.3,0,2-0.6,2.6-1.7l1.3,0.6c-0.9,1.8-2,2.6-3.9,2.6c-1.3,0-2.4-0.5-3.1-1.4
		c-0.7-0.9-1.1-2-1.1-3.4c0-1.3,0.4-2.4,1.1-3.4c0.7-0.9,1.7-1.4,3.1-1.4c1.3,0,2.3,0.4,3,1.3c0.7,0.8,1.1,1.9,1.1,3.1V8.8z
		 M308.1,7.4h5c-0.3-1.4-1.1-2.3-2.6-2.3C309.2,5.1,308.4,6,308.1,7.4z"/>
	<path class="st0" d="M317.6,10.9c0.6,0,1.1,0.5,1.1,1.1c0,0.7-0.5,1.1-1.1,1.1c-0.7,0-1.1-0.5-1.1-1.1
		C316.5,11.4,317,10.9,317.6,10.9z"/>
	<path class="st0" d="M329,10.7c-0.7,1.7-2,2.5-3.8,2.5c-1.3,0-2.4-0.5-3.1-1.4c-0.7-0.9-1.1-2-1.1-3.4c0-1.3,0.4-2.4,1.1-3.4
		c0.7-0.9,1.8-1.4,3.1-1.4c1.8,0,3.1,0.8,3.8,2.5l-1.3,0.5c-0.5-1.1-1.3-1.7-2.5-1.7c-1.7,0-2.6,1.4-2.6,3.4c0,2,0.9,3.4,2.6,3.4
		c1.2,0,2-0.6,2.5-1.7L329,10.7z"/>
	<path class="st0" d="M330.8,8.5c0-1.3,0.4-2.4,1.2-3.3c0.8-0.9,1.9-1.4,3.2-1.4s2.4,0.5,3.2,1.4c0.8,0.9,1.2,2,1.2,3.3
		s-0.4,2.4-1.2,3.4c-0.8,0.9-1.9,1.4-3.2,1.4s-2.4-0.5-3.2-1.4C331.2,10.9,330.8,9.8,330.8,8.5z M332.4,8.5c0,0.9,0.3,1.7,0.7,2.4
		c0.5,0.7,1.2,1,2.1,1c0.9,0,1.6-0.3,2.1-1c0.5-0.7,0.8-1.5,0.8-2.4c0-0.9-0.3-1.7-0.8-2.4c-0.5-0.7-1.2-1-2.1-1
		c-0.9,0-1.6,0.3-2.1,1C332.7,6.8,332.4,7.6,332.4,8.5z"/>
</g>
<g>
	<path class="st0" d="M10.8,9.4c-0.3,1.1-0.9,2.1-1.7,2.8c-0.9,0.7-1.9,1.1-3.2,1.1c-1.6,0-3-0.6-4.1-1.7C0.6,10.4,0,8.8,0,6.7
		S0.6,3,1.7,1.9c1.1-1.1,2.5-1.7,4.1-1.7c1.3,0,2.4,0.4,3.2,1.1s1.5,1.6,1.7,2.8L9.2,4.5C8.6,2.6,7.5,1.7,5.8,1.7
		c-1.2,0-2.2,0.4-3,1.3C2,3.9,1.7,5.1,1.7,6.7S2,9.5,2.8,10.4c0.8,0.9,1.7,1.3,3,1.3c1.7,0,2.8-0.9,3.4-2.8L10.8,9.4z"/>
	<path class="st0" d="M12.5,8.5c0-1.3,0.4-2.4,1.2-3.3c0.8-0.9,1.9-1.4,3.2-1.4s2.4,0.5,3.2,1.4c0.8,0.9,1.2,2,1.2,3.3
		s-0.4,2.4-1.2,3.4c-0.8,0.9-1.9,1.4-3.2,1.4s-2.4-0.5-3.2-1.4C12.9,10.9,12.5,9.8,12.5,8.5z M14.1,8.5c0,0.9,0.3,1.7,0.7,2.4
		c0.5,0.7,1.2,1,2.1,1c0.9,0,1.6-0.3,2.1-1c0.5-0.7,0.8-1.5,0.8-2.4c0-0.9-0.3-1.7-0.8-2.4c-0.5-0.7-1.2-1-2.1-1
		c-0.9,0-1.6,0.3-2.1,1C14.3,6.8,14.1,7.6,14.1,8.5z"/>
	<path class="st0" d="M31.1,13.1h-1.5V7c0-1.3-0.5-1.9-1.6-1.9c-0.7,0-1.3,0.4-1.9,1.1c-0.5,0.7-0.8,1.7-0.8,3v3.8h-1.5V3.9h1.5v1.7
		c0.7-1.2,1.7-1.8,3-1.8c1.7,0,2.7,1,2.7,2.9V13.1z"/>
	<path class="st0" d="M33.1,5.3V3.9h1.6V1.1l1.5-1v3.7h2.4v1.4h-2.4v5c0,1,0.4,1.5,1.2,1.5c0.4,0,0.7-0.1,1-0.3l0.4,1.3
		c-0.4,0.2-0.9,0.3-1.5,0.3c-1.6,0-2.7-1-2.7-3V5.3H33.1z"/>
	<path class="st0" d="M47.7,13.1h-1.2l-0.3-1.3c-0.7,1-1.6,1.4-2.9,1.4c-1.7,0-2.8-0.9-2.8-2.8c0-2,1.6-3,4.2-3h1.5V7
		c0-1.3-0.7-1.9-2-1.9c-1,0-1.7,0.5-1.9,1.4l-1.3-0.3c0.2-1.5,1.5-2.5,3.3-2.5c2.1,0,3.5,1.1,3.5,3.5V13.1z M43.6,11.8
		c0.7,0,1.3-0.2,1.8-0.7c0.5-0.5,0.8-1.2,0.8-2.1V8.8h-1.6c-1.5,0-2.4,0.6-2.4,1.6C42.1,11.3,42.6,11.8,43.6,11.8z"/>
	<path class="st0" d="M58.1,10.7c-0.7,1.7-2,2.5-3.8,2.5c-1.3,0-2.4-0.5-3.1-1.4c-0.7-0.9-1.1-2-1.1-3.4c0-1.3,0.4-2.4,1.1-3.4
		c0.7-0.9,1.8-1.4,3.1-1.4c1.8,0,3.1,0.8,3.8,2.5l-1.3,0.5c-0.5-1.1-1.3-1.7-2.5-1.7c-1.7,0-2.6,1.4-2.6,3.4c0,2,0.9,3.4,2.6,3.4
		c1.2,0,2-0.6,2.5-1.7L58.1,10.7z"/>
	<path class="st0" d="M59.6,5.3V3.9h1.6V1.1l1.5-1v3.7h2.4v1.4h-2.4v5c0,1,0.4,1.5,1.2,1.5c0.4,0,0.7-0.1,1-0.3l0.4,1.3
		c-0.4,0.2-0.9,0.3-1.5,0.3c-1.6,0-2.7-1-2.7-3V5.3H59.6z"/>
	<path class="st0" d="M68.8,4.6c0.6,0,1.1,0.5,1.1,1.1c0,0.7-0.5,1.1-1.1,1.1c-0.7,0-1.1-0.5-1.1-1.1C67.7,5.1,68.2,4.6,68.8,4.6z
		 M68.8,10.9c0.6,0,1.1,0.5,1.1,1.1c0,0.7-0.5,1.1-1.1,1.1c-0.7,0-1.1-0.5-1.1-1.1C67.7,11.4,68.2,10.9,68.8,10.9z"/>
</g>
</svg>
