<?xml version="1.0" encoding="utf-8"?>
<!-- Generator: Adobe Illustrator 19.2.0, SVG Export Plug-In . SVG Version: 6.00 Build 0)  -->
<svg version="1.1" id="Layer_1" xmlns="http://www.w3.org/2000/svg" xmlns:xlink="http://www.w3.org/1999/xlink" x="0px" y="0px"
	 viewBox="0 0 528.5 426.2" style="enable-background:new 0 0 528.5 426.2;" xml:space="preserve">
<style type="text/css">
	.st0{fill:#69B42E;}
	.st1{fill:#060B0B;}
</style>
<rect x="104.1" y="-21.7" transform="matrix(0.8948 -0.4464 0.4464 0.8948 -83.4771 71.8526)" class="st0" width="13.2" height="469.7"/>
<polygon class="st1" points="72.5,83.5 55.1,83.5 55.1,73.3 100.6,73.3 100.6,83.5 83.2,83.5 83.2,136.2 72.5,136.2 "/>
<polygon class="st1" points="146.1,73.3 156.9,73.3 156.9,136.2 146.1,136.2 146.1,109.1 119.3,109.1 119.3,136.2 108.5,136.2 
	108.5,73.3 119.3,73.3 119.3,98.9 146.1,98.9 "/>
<polygon class="st1" points="181,98.8 206.1,98.8 206.1,109 181,109 181,125.9 208.8,125.9 208.8,136.2 170.2,136.2 170.2,73.3 
	208.3,73.3 208.3,83.5 181,83.5 "/>
<path class="st1" d="M80.5,217.8c-9.3-3.2-19.7-8.3-19.7-19.9c0-8.9,7.9-17.8,20.6-17.8c13.1,0,20.5,10,20.5,10l-7.5,7.4
	c0,0-5.2-7.1-13-7.1c-5.4,0-9.6,3.3-9.6,7.5c0,5.5,4.9,7.2,13.6,10.4c9.6,3.6,17.6,7.9,17.6,19.3c0,11.4-10.1,17.5-21.9,17.5
	c-15.7,0-23-12.8-23-12.8l8.1-6.8c0,0,5.4,9.4,14.9,9.4c5.4,0,11-2.2,11-7.3C92,222.2,87.9,220.4,80.5,217.8"/>
<polygon class="st1" points="151.6,181.1 162.4,181.1 162.4,244 151.6,244 151.6,216.9 124.7,216.9 124.7,244 114,244 114,181.1 
	124.7,181.1 124.7,206.7 151.6,206.7 "/>
<polygon class="st1" points="186.5,206.6 211.6,206.6 211.6,216.9 186.5,216.9 186.5,233.7 214.3,233.7 214.3,244 175.7,244 
	175.7,181.1 213.8,181.1 213.8,191.3 186.5,191.3 "/>
<path class="st1" d="M224.7,181.1h20.7c12.5,0,20.8,8.1,20.8,19.6c0,9.4-5,16.6-14,18.9L268,244h-12.6l-14.9-23.7h-4.9V244h-10.8
	V181.1z M255.3,200.7c0-6.2-4.3-9.3-11.2-9.3h-8.5V210h8.5C251,210,255.3,206.9,255.3,200.7"/>
<path class="st1" d="M277.1,181.1h21.4c12.5,0,20.8,8.6,20.8,20.1c0,11.5-8.4,20.1-20.8,20.1h-10.6V244h-10.8V181.1z M308.4,201.2
	c0-5.9-3.9-9.9-11.2-9.9h-9.3v19.8h9.3C304.5,211.1,308.4,207.1,308.4,201.2"/>
<polygon class="st1" points="383.9,181.2 389.9,207.8 381.4,207.6 371.3,180.8 "/>
<path class="st1" d="M421.3,217.8c-9.3-3.2-19.7-8.3-19.7-19.9c0-8.9,7.9-17.8,20.6-17.8c13.1,0,20.5,10,20.5,10l-7.5,7.4
	c0,0-5.2-7.1-13-7.1c-5.4,0-9.6,3.3-9.6,7.5c0,5.5,4.9,7.2,13.6,10.4c9.6,3.6,17.6,7.9,17.6,19.3c0,11.4-10.1,17.5-21.9,17.5
	c-15.7,0-23-12.8-23-12.8l8.1-6.8c0,0,5.4,9.4,14.9,9.4c5.4,0,11-2.2,11-7.3C432.8,222.2,428.8,220.4,421.3,217.8"/>
<path class="st1" d="M105.8,335.1l7.2,7.1c0,0-8.3,10.7-24.2,10.7c-18.2,0-31.9-13.9-31.9-32.5s13.7-32.5,31.9-32.5
	c15.1,0,23.3,9.9,23.3,9.9l-7.3,7.1c0,0-5.7-6.9-16-6.9c-12.4,0-20.9,10.3-20.9,22.5c0,12.1,8.5,22.5,20.9,22.5
	C99.9,342.8,105.8,335.1,105.8,335.1"/>
<path class="st1" d="M181.3,320.4c0,18.6-13.5,32.5-31.8,32.5c-18.3,0-31.8-13.9-31.8-32.5s13.5-32.5,31.8-32.5
	C167.8,287.8,181.3,301.8,181.3,320.4 M170.3,320.4c0-12.1-8.2-22.3-20.8-22.3c-12.7,0-20.8,10.2-20.8,22.3
	c0,12.1,8.2,22.3,20.8,22.3C162.1,342.6,170.3,332.5,170.3,320.4"/>
<path class="st1" d="M265.2,288.9h21.4c12.5,0,20.8,8.6,20.8,20.1c0,11.5-8.4,20.1-20.8,20.1h-10.6v22.6h-10.8V288.9z M296.4,309
	c0-5.9-3.9-9.9-11.2-9.9h-9.3v19.8h9.3C292.6,318.9,296.4,315,296.4,309"/>
<path class="st1" d="M392.6,325.6c-9.3-3.2-19.7-8.3-19.7-19.9c0-8.9,7.9-17.8,20.6-17.8c13.1,0,20.5,10,20.5,10l-7.5,7.4
	c0,0-5.2-7.1-13-7.1c-5.4,0-9.6,3.3-9.6,7.5c0,5.5,4.9,7.2,13.6,10.4c9.6,3.6,17.6,7.9,17.6,19.3c0,11.4-10.1,17.5-21.9,17.5
	c-15.7,0-23-12.8-23-12.8l8.1-6.8c0,0,5.4,9.4,14.9,9.4c5.4,0,11-2.2,11-7.3C404.1,330.1,400,328.2,392.6,325.6"/>
<path class="st1" d="M446,325.6c-9.3-3.2-19.7-8.3-19.7-19.9c0-8.9,7.9-17.8,20.6-17.8c13.1,0,20.5,10,20.5,10l-7.5,7.4
	c0,0-5.2-7.1-13-7.1c-5.4,0-9.6,3.3-9.6,7.5c0,5.5,4.9,7.2,13.6,10.4c9.6,3.6,17.6,7.9,17.6,19.3c0,11.4-10.1,17.5-21.9,17.5
	c-15.7,0-23-12.8-23-12.8l8.1-6.8c0,0,5.4,9.4,14.9,9.4c5.4,0,11-2.2,11-7.3C457.5,330.1,453.5,328.2,446,325.6"/>
<polygon class="st1" points="341,288.9 330,288.9 305.6,351.8 316.5,351.8 322.2,336.9 326.1,327 335.5,302.5 344.9,327 
	348.8,336.9 354.6,351.8 365.4,351.8 "/>
<polygon class="st1" points="250,288.9 239.1,288.9 239.1,288.9 233.3,303.8 229.5,313.7 220,338.2 210.6,313.7 206.7,303.8 
	201.1,289.1 201.1,288.9 201,288.9 190.1,288.9 189.6,288.9 189.6,351.8 200.3,351.8 200.3,315.2 214.6,351.8 225.5,351.8 
	239.9,314.9 239.9,351.8 250.6,351.8 250.6,288.9 "/>
<polygon class="st1" points="352.9,181.1 342,181.1 317.5,244 328.4,244 334.2,229.1 338,219.2 347.5,194.7 356.9,219.2 
	360.8,229.1 366.5,244 377.4,244 "/>
</svg>
